<svg xmlns="http://www.w3.org/2000/svg" width="68.396" height="78.322" viewBox="0 0 68.396 78.322">
  <g id="Group_207" data-name="Group 207" transform="translate(0.5 0.5)">
    <path id="Path_992" data-name="Path 992" d="M4441.368,5912.728c-1.45-.189-2.9-.357-4.35-.57a44.626,44.626,0,0,1-8.292-2.132,1.235,1.235,0,0,1-.953-1.524c.217-.71.834-.958,1.675-.727,2.354.649,4.685,1.43,7.073,1.891a41.851,41.851,0,0,0,23.729-2.469,41.333,41.333,0,0,0,7-3.52,2.566,2.566,0,0,0-.145-.272,150.837,150.837,0,0,1-14.08-24.665c-.6-1.29-1.179-2.594-1.766-3.893-.052-.114-.1-.228-.146-.346a1.2,1.2,0,0,1,.538-1.659,1.112,1.112,0,0,1,1.548.7c.523,1.135,1.011,2.286,1.536,3.42a162.209,162.209,0,0,0,11.9,21.715c.509.769,1.031,1.529,1.583,2.266.109.145.453.283.572.212,2.029-1.193,4.04-2.42,6.1-3.666a4.669,4.669,0,0,0-.292-.438,153.423,153.423,0,0,1-19.07-26.5c-.455-.775-.911-1.549-1.334-2.342a.8.8,0,0,0-.8-.5q-9.309.018-18.618,0c-.5,0-.668.275-.87.635a163.71,163.71,0,0,1-12.777,19.581c-2.364,3.072-4.932,5.978-7.408,8.959-.11.132-.221.263-.39.462.229.174.425.35.644.486,1.711,1.068,3.434,2.115,5.137,3.2.463.294.691.176.994-.256a146.691,146.691,0,0,0,11.563-20.09c1.125-2.314,2.169-4.668,3.235-7.012a1.327,1.327,0,0,1,1.122-.945,1.177,1.177,0,0,1,1.061,1.7c-.324.839-.713,1.653-1.087,2.472a160.272,160.272,0,0,1-13.933,25.105c-.368.53-.747,1.053-1.2,1.688,1.081.6,2.122,1.183,3.169,1.756.387.212.8.378,1.181.6a1.171,1.171,0,0,1,.546,1.535,1.07,1.07,0,0,1-1.478.585c-1.92-1.039-3.817-2.126-5.7-3.242a1.233,1.233,0,0,1-.382-1.663c-1.357-.827-2.7-1.6-3.991-2.443-1.092-.712-2.149-1.484-3.19-2.275a1.206,1.206,0,0,1-.149-2.037c8.362-8.83,15.1-18.9,21.112-29.5a3.956,3.956,0,0,0,.43-1.621c.407-5.764-.92-11.286-2.319-16.785a3.481,3.481,0,0,1,.48-2.985,2.978,2.978,0,0,1,.677-.88,3.39,3.39,0,0,0,1.3-2.606,10.81,10.81,0,0,1,3.178-6.145c.907-.873,1.645-.767,2.222.35a20.834,20.834,0,0,1,2.291,6.8,1.053,1.053,0,0,0,.535.669c.949.455,1.921.865,2.9,1.246a1.2,1.2,0,0,0,.8,0c.98-.381,1.936-.827,2.912-1.222a.743.743,0,0,0,.546-.687,19.59,19.59,0,0,1,2.34-6.932,1.152,1.152,0,0,1,2.037-.323,11.275,11.275,0,0,1,3.414,6.911,2.649,2.649,0,0,0,.783,1.591,12.953,12.953,0,0,1,1.641,2.451,1.333,1.333,0,0,1,.08.876c-.307,1.4-.645,2.784-.994,4.169a1.124,1.124,0,0,1-2.21-.026,1.577,1.577,0,0,1,.038-.665c.232-1.027.459-2.057.733-3.072a1.544,1.544,0,0,0-.259-1.41,3.477,3.477,0,0,0-2.777-1.444,11.87,11.87,0,0,0-6.543,1.622,3.961,3.961,0,0,1-4.323-.019,11.947,11.947,0,0,0-6.475-1.6,3.476,3.476,0,0,0-2.833,1.482,1.585,1.585,0,0,0-.241,1.341c.757,3.607,1.481,7.222,2.209,10.835.064.316.085.642.134,1.017h18.73c.223-1.364.421-2.7.668-4.029a1.128,1.128,0,0,1,1.261-.991,1.188,1.188,0,0,1,.976,1.367,1.367,1.367,0,0,1-.021.225,38.713,38.713,0,0,0-.569,9.159,2,2,0,0,0,.2.929,153.9,153.9,0,0,0,20.311,28.814c.335.365.689.712,1.023,1.08.7.773.685,1.491-.179,2.088-1.943,1.345-3.924,2.632-5.9,3.932-.388.256-.8.465-1.257.723.439,1-.063,1.555-.825,2.045a46.674,46.674,0,0,1-17.767,6.857c-1.466.246-2.947.4-4.421.589Zm-6.562-47.458h18.541v-2.882h-18.541Zm3.186-22.356c-.478-1.467-.925-2.841-1.372-4.215a7.811,7.811,0,0,0-1.851,4.215Zm15.408,0a9.168,9.168,0,0,0-1.73-4.311,15.7,15.7,0,0,0-1.336,4.311Z" transform="translate(-4410.389 -5835.407)" fill="#2672ab" stroke="#2672ab" stroke-width="1"/>
  </g>
</svg>
