<svg xmlns="http://www.w3.org/2000/svg" xmlns:xlink="http://www.w3.org/1999/xlink" width="139.69" height="124.958" viewBox="0 0 139.69 124.958">
  <defs>
    <filter id="Rectangle_24" x="26.69" y="61.958" width="113" height="63" filterUnits="userSpaceOnUse">
      <feOffset dy="3" input="SourceAlpha"/>
      <feGaussianBlur stdDeviation="3" result="blur"/>
      <feFlood flood-color="#fbca01" flood-opacity="0.42"/>
      <feComposite operator="in" in2="blur"/>
      <feComposite in="SourceGraphic"/>
    </filter>
  </defs>
  <g id="Group_185" data-name="Group 185" transform="translate(-900.31 -1085.042)">
    <g transform="matrix(1, 0, 0, 1, 900.31, 1085.04)" filter="url(#Rectangle_24)">
      <rect id="Rectangle_24-2" data-name="Rectangle 24" width="95" height="45" rx="8" transform="translate(35.69 67.96)" fill="#fbca01"/>
    </g>
    <g id="Group_180" data-name="Group 180" transform="translate(901 1085.555)">
      <path id="Path_926" data-name="Path 926" d="M2764.865,5255.054l-6.994,11.812,24.732,11.149v25.526c1.752.132,3.152.317,4.554.328,4.814.039,9.63-.059,14.441.061a22.331,22.331,0,0,1,4.268.914c.25,3.4-1.711,3.627-3.616,3.658-4.813.078-9.628.036-14.442.042-1.452,0-2.9,0-4.8,0-.168,2.728-.312,5.065-.5,8.074l-32,14.323L2718.5,5316.59c-.211-2.893-.373-5.121-.562-7.709-3.443-.253-6.75-.339-10.011-.767-8.067-1.059-13.812-8.688-12.976-17.028a15.744,15.744,0,0,1,15.627-13.841c1.683.047,3.269.144,3.638,2.279-.531,2.369-2.449,1.971-4.146,2.133-8.348.794-13.157,8.665-9.654,15.923a10.181,10.181,0,0,0,9.109,6.235c2.652.118,5.313.022,8.55.022v-25.646l25.106-11.393-6.912-11.56h-33.153l2.807,3.819-1.509,2.858c-4.361-2.181-6.92-5.635-9.992-9.219l9.15-8.626c2.963,1.543,2.963,1.543-.385,6.335h30.625c-.733-3.116-1.637-6.022-2.079-9a19.068,19.068,0,1,1,37.894-3.622c.108,2.865-.856,5.779-1.408,8.655-.244,1.269-.687,2.5-1.157,4.163,7.861,0,15.335-.178,22.793.091a20.665,20.665,0,0,1,8.417,1.99c6.664,3.394,9.53,11.59,6.981,18.6-2.689,7.4-9.8,11.4-17.952,9.748-.055-.931-.118-1.985-.2-3.417,1.742-.168,3.033-.279,4.321-.418a11.131,11.131,0,0,0,10.24-11.72,10.874,10.874,0,0,0-11.082-10.4C2782.036,5254.977,2773.491,5255.054,2764.865,5255.054Zm-16.994,39.093-25.079-11.188v30.732l25.079,11.241ZM2778.114,5283l-24.835,11.134c-.9,6.56-.579,27.451.511,30.518l24.325-10.889Zm-27.608-13.963c6.25-8.333,11.58-16.344,13.981-25.8,2.546-10.031-3.557-18.8-13.013-19.407-10.163-.652-17.611,8.574-15.03,19.1C2738.8,5252.555,2744.307,5260.6,2750.506,5269.034Zm.049,21.423,24.615-11.027-10.511-4.6-24.518,10.978Zm-4.3-20.04c-3.784,1.681-6.94,3.078-10.092,4.486-3.211,1.435-6.416,2.881-10.184,4.575l8.8,3.835,23.789-10.656q-.073-.367-.147-.733l-3.188-.993-5.291,5.051Z" transform="translate(-2694.423 -5219.393)" fill="#2672ab" stroke="#2672ab" stroke-linecap="round" stroke-width="1"/>
      <path id="Path_927" data-name="Path 927" d="M3108.947,5307.789a9.863,9.863,0,0,1-9.615,10.165,10.031,10.031,0,0,1-10.174-10.053,9.895,9.895,0,1,1,19.789-.112Zm-4.447.023a5.093,5.093,0,0,0-5.692-5.213,5.213,5.213,0,0,0-5.232,5.349,5.652,5.652,0,0,0,5.561,5.6A5.528,5.528,0,0,0,3104.5,5307.812Z" transform="translate(-3042.978 -5288.692)" fill="#2672ab" stroke="#2672ab" stroke-linecap="round" stroke-width="1"/>
    </g>
  </g>
</svg>
