<svg xmlns="http://www.w3.org/2000/svg" width="51.316" height="82.357" viewBox="0 0 51.316 82.357">
  <g id="Group_203" data-name="Group 203" transform="translate(0.499 0.503)">
    <path id="Path_984" data-name="Path 984" d="M5210.136,5094.773a39.8,39.8,0,0,1-13.249-2.157,9.455,9.455,0,0,1-5.15-4.214,44.314,44.314,0,0,1-5.215-14.13,59.708,59.708,0,0,1-1.032-13.706,27.5,27.5,0,0,1,3.486-13.407,26.221,26.221,0,0,0,3.447-13.935,21.045,21.045,0,0,1,1.5-8.395,18.186,18.186,0,0,1,18.039-11.365c8.548.623,15.667,7.648,16.649,16.511.218,1.976.223,3.979.308,5.97a22.961,22.961,0,0,0,2.959,10.5,27.351,27.351,0,0,1,3.04,7.576,43.08,43.08,0,0,1,.829,10.361,55.445,55.445,0,0,1-2.239,14.719,51.679,51.679,0,0,1-3.3,8.072,11.045,11.045,0,0,1-7.37,5.978A46.524,46.524,0,0,1,5210.136,5094.773Zm.474-48.661c-.185.287-.331.5-.467.723a20.49,20.49,0,0,1-13.94,9.815,1.143,1.143,0,0,0-.944.786,17.558,17.558,0,0,0-.939,10.733c2.121,9.238,10.471,14.858,19.5,13.147,10.369-1.965,16.429-13.9,12.144-23.888a1.164,1.164,0,0,0-.947-.78,20.512,20.512,0,0,1-13.939-9.819C5210.939,5046.61,5210.794,5046.4,5210.609,5046.113Zm21.341,7.627a9.8,9.8,0,0,0-.321-1.032c-.634-1.423-1.285-2.838-1.932-4.255-.721-1.58-1.548-3.118-2.147-4.747a32.475,32.475,0,0,1-1.613-10.234,26.271,26.271,0,0,0-.451-4.854,15.24,15.24,0,0,0-16.79-12.091,15.492,15.492,0,0,0-13.261,13.782c-.213,2.069-.2,4.162-.34,6.241a25.817,25.817,0,0,1-2.512,9.825c-.691,1.4-1.445,2.759-2.107,4.169-.465.991-.825,2.037-1.232,3.062,2.2.84,6.617.481,9.674-.778a18.192,18.192,0,0,0,9.6-9.039,11.344,11.344,0,0,1-7.217-5.056,11.516,11.516,0,0,1-1.634-8.809c1.168-5.478,5.492-9.021,10.25-9.191,6.232-.223,10.347,3.376,11.757,10a10.364,10.364,0,0,1-1.014,6.667,11.338,11.338,0,0,1-7.953,6.387,17.956,17.956,0,0,0,9.6,9.03A16.589,16.589,0,0,0,5231.951,5053.74Zm-43.252,2.988c-.076.559-.169,1.062-.209,1.57a54.955,54.955,0,0,0,1.759,19.289,37.1,37.1,0,0,0,4,9.411,5.831,5.831,0,0,0,2.365,2.2,19.442,19.442,0,0,0,5.03,1.723,45.272,45.272,0,0,0,16.3.314,21.542,21.542,0,0,0,6.422-1.916,5.483,5.483,0,0,0,2.63-2.41c.884-1.765,1.871-3.488,2.6-5.321a51.519,51.519,0,0,0,3.277-20.943c-.042-1.312-.209-2.619-.318-3.923l-3.569.369c3.5,10.606-1.361,19.5-6.632,23.4-6.733,4.989-14,5.794-21.144,1.5-9.34-5.611-11.845-14.337-9.083-24.918Zm13.753-22.985a8.33,8.33,0,0,0,8.684,7.25c3.9-.258,7.692-3.895,7.583-7.31a11.442,11.442,0,0,1-8.06-5.725C5206.992,5032.3,5206.669,5032.525,5202.451,5033.743Zm.038-3.11c3.4-.735,6.426-3.962,6.395-6.763A8.254,8.254,0,0,0,5202.489,5030.633Zm16.24,0c-.5-3.38-3.537-6.5-6.455-6.7A8.259,8.259,0,0,0,5218.729,5030.635Z" transform="translate(-5185.448 -5013.419)" fill="#2672ab" stroke="#2672ab" stroke-width="1"/>
  </g>
</svg>
