<svg xmlns="http://www.w3.org/2000/svg" width="80.485" height="80.55" viewBox="0 0 80.485 80.55">
  <g id="Group_206" data-name="Group 206" transform="translate(0.543 0.5)">
    <path id="Path_990" data-name="Path 990" d="M4991.045,4465.106a3.449,3.449,0,0,0-.367,1.269c.2,1.535-.309,2.092-1.806,1.81-1.23-.232-1.578.144-1.352,1.458.238,1.384-.371,1.989-1.752,1.742-1.291-.23-1.612.119-1.485,1.368.053.517-.032,1.333-.354,1.533-.418.26-1.134.054-1.721.027-.429-.02-.966-.257-1.267-.079a21.053,21.053,0,0,0-4.21,2.774c-3.648,3.583-7.136,7.328-10.682,11.014-.4.419-.783.86-1.239,1.364.479.8.943,1.534,1.368,2.291,2.418,4.305,2.92,8.631.117,12.986a9.532,9.532,0,0,1-5.212,4.281c-4.882,1.445-7.15,4.647-7.845,9.65a18.681,18.681,0,0,1-9.309,14.242c-3.995,2.327-8.25,3.03-12.533,1.375a31.531,31.531,0,0,1-18.894-18.817c-2.85-7.579,1.3-16.426,9.018-19.908a35.724,35.724,0,0,1,8.4-2.5,8.41,8.41,0,0,0,7.1-5.986c1.493-4.383,4.369-7.309,8.975-8.342,3.234-.726,6.152.243,8.94,1.782.716.4,1.4.851,2.235,1.364.43-.361.888-.7,1.3-1.1,3.857-3.707,7.768-7.361,11.521-11.172a17.023,17.023,0,0,0,2.474-4c.157-.292-.2-.829-.229-1.26a2.873,2.873,0,0,1,.085-1.579,1.713,1.713,0,0,1,1.375-.421c1.543.147,1.725,0,1.492-1.582a1.3,1.3,0,0,1,1.62-1.644c1.658.218,1.821.065,1.565-1.461-.211-1.254.453-1.969,1.7-1.652.632.16,1.108.37,1.446-.359h3.175a9.226,9.226,0,0,1,6.352,6.352Zm-35.814,18.709c-1.015-.588-1.789-1.1-2.615-1.5-5.815-2.843-11.2.209-12.715,4.867a20.691,20.691,0,0,1-1.2,2.74,9.3,9.3,0,0,1-6.617,5.318,69.552,69.552,0,0,0-7.174,1.767c-9.5,3.144-13.205,12.724-8.192,21.207a33.705,33.705,0,0,0,11.58,11.64,13.673,13.673,0,0,0,20.338-5.925,35.543,35.543,0,0,0,2.425-8.234,10.488,10.488,0,0,1,6.8-8.312c.655-.259,1.3-.54,1.957-.8,6.248-2.474,7.3-10.054,2.592-15.233a10.777,10.777,0,0,1-1,1.48c-2.015,2.141-4.092,4.224-6.077,6.392a3.029,3.029,0,0,0-.509,1.621,8.264,8.264,0,0,1-8.468,7.362,8.373,8.373,0,0,1-7.937-7.984,8.248,8.248,0,0,1,7.419-8.412,2.714,2.714,0,0,0,1.47-.429C4949.922,4488.949,4952.478,4486.459,4955.231,4483.816Zm16.705-12.279-21.076,20.286,3.954,3.934,20.251-21.049Zm11.384-13.3a6.051,6.051,0,0,0-1.258.8c-1.98,1.922-4.008,3.809-5.83,5.875a13.511,13.511,0,0,0-2.163,3.781c-.163.393.34,1.3.789,1.658.99.79,1.479,2.6,3.038,2.208a9.15,9.15,0,0,0,3.652-2.025c2.147-1.909,4.123-4.012,6.115-6.088a2.31,2.31,0,0,0,.649-1.505C4988.214,4460.749,4985.934,4458.5,4983.32,4458.242Zm-31.17,41.669a5.462,5.462,0,0,0-10.923-.017,5.375,5.375,0,0,0,5.439,5.5A5.445,5.445,0,0,0,4952.15,4499.911Z" transform="translate(-4911.603 -4455.58)" fill="#2672ab" stroke="#2672ab" stroke-width="1"/>
    <path id="Path_991" data-name="Path 991" d="M4974.925,4681.517a11.392,11.392,0,0,1-1.385-1q-5.676-5.637-11.32-11.307c-.669-.67-1.194-1.433-.345-2.271s1.614-.315,2.279.349c3.776,3.767,7.564,7.522,11.289,11.338a2.748,2.748,0,0,1,.594,1.833C4976.03,4680.8,4975.372,4681.116,4974.925,4681.517Z" transform="translate(-4949.083 -4614.229)" fill="#2672ab" stroke="#2672ab" stroke-width="1"/>
  </g>
</svg>
