<svg xmlns="http://www.w3.org/2000/svg" width="53.701" height="53.689" viewBox="0 0 53.701 53.689">
  <path id="Icon_awesome-instagram" data-name="Icon awesome-instagram" d="M26.851,15.317A13.765,13.765,0,1,0,40.617,29.082,13.743,13.743,0,0,0,26.851,15.317Zm0,22.714A8.949,8.949,0,1,1,35.8,29.082,8.965,8.965,0,0,1,26.851,38.032ZM44.39,14.754a3.211,3.211,0,1,1-3.211-3.211A3.2,3.2,0,0,1,44.39,14.754Zm9.117,3.259c-.2-4.3-1.186-8.111-4.337-11.249S42.222,2.642,37.921,2.426c-4.433-.252-17.719-.252-22.151,0-4.289.2-8.1,1.186-11.249,4.325S.4,13.7.183,18c-.252,4.433-.252,17.719,0,22.151.2,4.3,1.186,8.111,4.337,11.249s6.949,4.121,11.249,4.337c4.433.252,17.719.252,22.151,0,4.3-.2,8.111-1.186,11.249-4.337s4.121-6.949,4.337-11.249c.252-4.433.252-17.707,0-22.139Zm-5.727,26.9a9.06,9.06,0,0,1-5.1,5.1c-3.534,1.4-11.92,1.078-15.826,1.078s-12.3.311-15.826-1.078a9.06,9.06,0,0,1-5.1-5.1c-1.4-3.534-1.078-11.92-1.078-15.826s-.311-12.3,1.078-15.826a9.06,9.06,0,0,1,5.1-5.1c3.534-1.4,11.92-1.078,15.826-1.078s12.3-.311,15.826,1.078a9.06,9.06,0,0,1,5.1,5.1c1.4,3.534,1.078,11.92,1.078,15.826S49.182,41.386,47.781,44.908Z" transform="translate(0.005 -2.238)" fill="#3b6a98"/>
</svg>
