<svg xmlns="http://www.w3.org/2000/svg" width="91.963" height="77.718" viewBox="0 0 91.963 77.718">
  <g id="Group_200" data-name="Group 200" transform="translate(0.511 0.562)">
    <path id="Path_941" data-name="Path 941" d="M3179.568,4419.347c-5.828-9.43.759-20.626,10.656-20.935a13.549,13.549,0,0,1,12.714-18.342c-1.516-6.447-.063-11.922,5.629-15.631a12.221,12.221,0,0,1,14.029-.055c5.752,3.693,7.239,9.188,5.742,15.679a13.538,13.538,0,0,1,11.925,18.384c5.154.236,9.186,2.46,11.651,7.057s2.1,9.215-.585,13.765c.283.027.507.066.731.067,1.539.006,3.078-.017,4.616.011a4.9,4.9,0,0,1,4.688,3.527,4.988,4.988,0,0,1-2.024,5.535,1.572,1.572,0,0,0-.6.912c-1.017,5.933-5.237,9.532-11.229,9.532q-31.574,0-63.148,0a10.756,10.756,0,0,1-10.773-8.037,18.885,18.885,0,0,0-1.775-3.4,4.759,4.759,0,0,1-.7-5.14,4.669,4.669,0,0,1,4.27-2.909C3176.741,4419.289,3178.1,4419.347,3179.568,4419.347Zm-3.958,9.891a2.193,2.193,0,0,0,0,.312,8.5,8.5,0,0,0,8.319,7.048c5.662.03,11.325.008,16.987.008q23.312,0,46.623.009a8.855,8.855,0,0,0,5.762-1.856,8.16,8.16,0,0,0,3.143-5.521Zm40.424-2.291h39.7c.338,0,.677.011,1.015-.009a2.666,2.666,0,0,0,.319-5.3,5.872,5.872,0,0,0-1.012-.047q-38.59,0-77.179,0c-1.108,0-2.217-.035-3.323.015a2.669,2.669,0,0,0,.046,5.338c.215.009.431,0,.646,0Zm20.792-28.109.255.167a4.264,4.264,0,0,0,.765-.878,10.268,10.268,0,0,0,1.006-5.132,10.606,10.606,0,0,0-6.637-9.683c-4.115-1.794-7.993-1.094-11.5,1.711a.832.832,0,0,0-.363,1c.217.852-.336,1.4-1.2,1.482a1.177,1.177,0,0,0-.827.446,10.844,10.844,0,0,0-.414,10.23,1.478,1.478,0,0,0,.853.7,13.505,13.505,0,0,1,7.453,5.162c.619.852,2.482,1.055,3.1.216a14.457,14.457,0,0,1,5.961-4.81c-.7-.528-1.068-1.177-.55-1.844a1.6,1.6,0,0,1,1.33-.494C3236.907,4397.3,3236.983,4398.061,3236.826,4398.838Zm-25.251.161.2.142a4.206,4.206,0,0,0,.822-.891,10.432,10.432,0,0,0,.935-6.677,10.649,10.649,0,0,0-7.133-8.513,10.526,10.526,0,0,0-10.878,2.021,1.2,1.2,0,0,0-.286.905c.076.847-.393,1.563-1.217,1.477-.588-.063-.757.228-.96.608a11.406,11.406,0,0,0-.524,9.851,1.371,1.371,0,0,0,1.1.937,13.009,13.009,0,0,1,7.687,5.094,2.437,2.437,0,0,0,3.334.1,14.133,14.133,0,0,1,5.588-4.51c-.685-.522-1.267-1.067-.73-1.952a1.093,1.093,0,0,1,1.445-.479C3211.83,4397.48,3211.819,4398.212,3211.575,4399Zm28.729,20.339c2.4,0,4.8-.032,7.2.02a1.653,1.653,0,0,0,1.522-.784,10.8,10.8,0,0,0,2.24-6.36c.051-4.674-1.968-8.22-6.117-10.292-4.115-2.054-8.106-1.5-11.777,1.28-.408.309-.781.583-.6,1.278a1.031,1.031,0,0,1-1.116,1.333c-.6-.046-.809.251-1.042.668a11.2,11.2,0,0,0,1,12.215,1.575,1.575,0,0,0,1.4.655C3235.444,4419.32,3237.874,4419.339,3240.3,4419.338Zm-34.093-13.495a11.039,11.039,0,0,0,.772,13.036,1.506,1.506,0,0,0,1.01.44c4.954.028,9.909.01,14.864.031a1.37,1.37,0,0,0,1.226-.624,10.87,10.87,0,0,0,2.185-8.908,11,11,0,0,0-18.016-6.377.96.96,0,0,0-.379.577C3207.83,4405.732,3207.757,4405.827,3206.211,4405.844Zm-15.587,13.5c2.461,0,4.922.027,7.382-.027a1.785,1.785,0,0,0,1.213-.585,11.021,11.021,0,0,0-15.745-15.292,1.219,1.219,0,0,0-.308.917,1.252,1.252,0,0,1-1.2,1.514,1.365,1.365,0,0,0-.9.515,11.007,11.007,0,0,0,1.031,12.4,1.733,1.733,0,0,0,1.149.532C3185.7,4419.363,3188.163,4419.339,3190.624,4419.339Zm31.825-38.071c-.3-1.129-.063-1.805.683-2.027.714-.212,1.223.158,1.65,1.2a1.061,1.061,0,0,0,1.25-.942,20.9,20.9,0,0,0,.561-4.468,10.475,10.475,0,0,0-6.563-9.531c-4.147-1.817-8.057-1.124-11.564,1.739a1.181,1.181,0,0,0-.294.9,1.265,1.265,0,0,1-1.291,1.532.984.984,0,0,0-.711.325,10.982,10.982,0,0,0-.787,9.8,1.647,1.647,0,0,0,.956.837,12.092,12.092,0,0,1,5.894,3.645c1.18,1.389,2.595,1.479,4.156,1.278a1.892,1.892,0,0,0,1.144-.486A14.461,14.461,0,0,1,3222.449,4381.268Zm-20.751,38.019h2.691l-1.356-2.568Zm27.514.009-1.352-2.587-1.347,2.587Z" transform="translate(-3170.665 -4362.198)" fill="#2672ab" stroke="#2672ab" stroke-width="1"/>
    <path id="Path_942" data-name="Path 942" d="M3251.683,4735.306c-1.215,0-2.43-.008-3.644,0-.741.008-1.253-.273-1.325-1.057-.063-.685.465-1.146,1.327-1.15q3.69-.018,7.38,0a1.151,1.151,0,0,1,1.3,1.106c0,.646-.493,1.083-1.3,1.093C3254.173,4735.318,3252.927,4735.306,3251.683,4735.306Z" transform="translate(-3232.617 -4663.937)" fill="#2672ab" stroke="#2672ab" stroke-width="1"/>
    <path id="Path_943" data-name="Path 943" d="M3226.227,4735.33c-.86,0-1.388-.41-1.394-1.088s.536-1.117,1.375-1.121c.874,0,1.367.391,1.374,1.1S3227.107,4735.328,3226.227,4735.33Z" transform="translate(-3214.927 -4663.96)" fill="#2672ab" stroke="#2672ab" stroke-width="1"/>
    <path id="Path_944" data-name="Path 944" d="M3475.592,4576.69a1.22,1.22,0,0,1-1.161-1.27,1.182,1.182,0,0,1,2.359.144A1.189,1.189,0,0,1,3475.592,4576.69Z" transform="translate(-3418.199 -4534.821)" fill="#2672ab" stroke="#2672ab" stroke-width="1"/>
    <path id="Path_945" data-name="Path 945" d="M3428.873,4538.987a1.139,1.139,0,0,1-1.135,1.165,1.182,1.182,0,0,1-1.235-1.177,1.233,1.233,0,0,1,1.247-1.186A1.188,1.188,0,0,1,3428.873,4538.987Z" transform="translate(-3379.149 -4505.093)" fill="#2672ab" stroke="#2672ab" stroke-width="1"/>
    <path id="Path_946" data-name="Path 946" d="M3472.982,4524.616a1.2,1.2,0,0,1-1.172,1.232,1.216,1.216,0,0,1-1.194-1.231,1.188,1.188,0,0,1,1.276-1.138A1.114,1.114,0,0,1,3472.982,4524.616Z" transform="translate(-3415.096 -4493.442)" fill="#2672ab" stroke="#2672ab" stroke-width="1"/>
    <path id="Path_947" data-name="Path 947" d="M3518.8,4497.569a1.189,1.189,0,0,1-.083,2.376,1.189,1.189,0,1,1,.083-2.376Z" transform="translate(-3453.36 -4472.361)" fill="#2672ab" stroke="#2672ab" stroke-width="1"/>
    <path id="Path_948" data-name="Path 948" d="M3466.062,4480.859a1.184,1.184,0,0,1-1.068-1.334,1.147,1.147,0,0,1,1.261-1.033,1.188,1.188,0,0,1,1.085,1.315A1.235,1.235,0,0,1,3466.062,4480.859Z" transform="translate(-3410.509 -4456.834)" fill="#2672ab" stroke="#2672ab" stroke-width="1"/>
    <path id="Path_949" data-name="Path 949" d="M3335.772,4523.478a1.173,1.173,0,0,1,1.153,1.168,1.2,1.2,0,0,1-1.215,1.207,1.222,1.222,0,0,1-1.163-1.177A1.2,1.2,0,0,1,3335.772,4523.478Z" transform="translate(-3304.214 -4493.446)" fill="#2672ab" stroke="#2672ab" stroke-width="1"/>
    <path id="Path_950" data-name="Path 950" d="M3382.72,4497.567a1.188,1.188,0,0,1-.084,2.375,1.188,1.188,0,1,1,.084-2.375Z" transform="translate(-3342.461 -4472.36)" fill="#2672ab" stroke="#2672ab" stroke-width="1"/>
    <path id="Path_951" data-name="Path 951" d="M3339.644,4574.3a1.189,1.189,0,0,1,1.188,1.14,1.242,1.242,0,0,1-1.2,1.238,1.211,1.211,0,0,1-1.175-1.251A1.16,1.16,0,0,1,3339.644,4574.3Z" transform="translate(-3307.399 -4534.803)" fill="#2672ab" stroke="#2672ab" stroke-width="1"/>
    <path id="Path_952" data-name="Path 952" d="M3331.139,4479.764a1.12,1.12,0,0,1-1.137,1.085,1.216,1.216,0,0,1-1.233-1.2,1.2,1.2,0,0,1,1.251-1.168A1.177,1.177,0,0,1,3331.139,4479.764Z" transform="translate(-3299.504 -4456.83)" fill="#2672ab" stroke="#2672ab" stroke-width="1"/>
    <path id="Path_953" data-name="Path 953" d="M3292.939,4538.96a1.172,1.172,0,0,1-1.116,1.2,1.146,1.146,0,0,1-1.256-1.137,1.134,1.134,0,0,1,1.1-1.213A1.2,1.2,0,0,1,3292.939,4538.96Z" transform="translate(-3268.374 -4505.104)" fill="#2672ab" stroke="#2672ab" stroke-width="1"/>
    <path id="Path_954" data-name="Path 954" d="M3582.837,4649.261a1.131,1.131,0,0,1,1.143-1.157,1.2,1.2,0,0,1,1.229,1.189,1.263,1.263,0,0,1-1.169,1.183A1.2,1.2,0,0,1,3582.837,4649.261Z" transform="translate(-3506.401 -4594.867)" fill="#2672ab" stroke="#2672ab" stroke-width="1"/>
    <path id="Path_955" data-name="Path 955" d="M3585.9,4598.684a1.169,1.169,0,0,1-1.135-1.27,1.15,1.15,0,0,1,1.2-1.1,1.209,1.209,0,0,1,1.163,1.169A1.232,1.232,0,0,1,3585.9,4598.684Z" transform="translate(-3507.97 -4552.717)" fill="#2672ab" stroke="#2672ab" stroke-width="1"/>
    <path id="Path_956" data-name="Path 956" d="M3533.211,4577.2a1.188,1.188,0,0,1,1.184,1.231,1.254,1.254,0,0,1-1.208,1.141,1.207,1.207,0,0,1-1.166-1.257A1.144,1.144,0,0,1,3533.211,4577.2Z" transform="translate(-3465.137 -4537.162)" fill="#2672ab" stroke="#2672ab" stroke-width="1"/>
    <path id="Path_957" data-name="Path 957" d="M3540.181,4623.429a1.2,1.2,0,0,1-1.275,1.146,1.127,1.127,0,0,1-1.084-1.226,1.14,1.14,0,0,1,1.254-1.136A1.188,1.188,0,0,1,3540.181,4623.429Z" transform="translate(-3469.864 -4573.796)" fill="#2672ab" stroke="#2672ab" stroke-width="1"/>
    <path id="Path_958" data-name="Path 958" d="M3496,4637.612a1.181,1.181,0,1,1-2.36.088,1.181,1.181,0,0,1,1.207-1.209A1.134,1.134,0,0,1,3496,4637.612Z" transform="translate(-3433.856 -4585.414)" fill="#2672ab" stroke="#2672ab" stroke-width="1"/>
    <path id="Path_959" data-name="Path 959" d="M3405.877,4623.388a1.2,1.2,0,0,1-1.228,1.191,1.259,1.259,0,0,1-1.147-1.2,1.2,1.2,0,0,1,1.249-1.171A1.15,1.15,0,0,1,3405.877,4623.388Z" transform="translate(-3360.405 -4573.791)" fill="#2672ab" stroke="#2672ab" stroke-width="1"/>
    <path id="Path_960" data-name="Path 960" d="M3452.822,4597.525a1.178,1.178,0,0,1-1.17,1.153,1.241,1.241,0,0,1-1.2-1.237,1.215,1.215,0,0,1,1.194-1.141A1.159,1.159,0,0,1,3452.822,4597.525Z" transform="translate(-3398.662 -4552.71)" fill="#2672ab" stroke="#2672ab" stroke-width="1"/>
    <path id="Path_961" data-name="Path 961" d="M3449.75,4648.1a1.136,1.136,0,0,1,1.166,1.134,1.186,1.186,0,0,1-1.177,1.237,1.238,1.238,0,0,1-1.188-1.248A1.187,1.187,0,0,1,3449.75,4648.1Z" transform="translate(-3397.115 -4594.864)" fill="#2672ab" stroke="#2672ab" stroke-width="1"/>
    <path id="Path_962" data-name="Path 962" d="M3398.982,4579.593a1.2,1.2,0,0,1-1.134-1.282,1.11,1.11,0,0,1,1.216-1.084,1.138,1.138,0,0,1,1.13,1.256A1.2,1.2,0,0,1,3398.982,4579.593Z" transform="translate(-3355.792 -4537.188)" fill="#2672ab" stroke="#2672ab" stroke-width="1"/>
    <path id="Path_963" data-name="Path 963" d="M3361.856,4637.624a1.188,1.188,0,0,1-2.376.041,1.188,1.188,0,1,1,2.376-.041Z" transform="translate(-3324.531 -4585.38)" fill="#2672ab" stroke="#2672ab" stroke-width="1"/>
    <path id="Path_964" data-name="Path 964" d="M3317.607,4596.309a1.21,1.21,0,0,1,1.214,1.211,1.253,1.253,0,0,1-1.182,1.167,1.193,1.193,0,0,1-1.193-1.226A1.157,1.157,0,0,1,3317.607,4596.309Z" transform="translate(-3289.462 -4552.716)" fill="#2672ab" stroke="#2672ab" stroke-width="1"/>
    <path id="Path_965" data-name="Path 965" d="M3270.7,4622.207a1.2,1.2,0,0,1,1.187,1.144,1.253,1.253,0,0,1-1.209,1.232,1.192,1.192,0,0,1-1.163-1.255A1.144,1.144,0,0,1,3270.7,4622.207Z" transform="translate(-3251.215 -4573.792)" fill="#2672ab" stroke="#2672ab" stroke-width="1"/>
    <path id="Path_966" data-name="Path 966" d="M3226.5,4638.819a1.082,1.082,0,0,1-1.019-1.151,1.169,1.169,0,0,1,1.19-1.216,1.189,1.189,0,1,1-.171,2.367Z" transform="translate(-3215.451 -4585.384)" fill="#2672ab" stroke="#2672ab" stroke-width="1"/>
    <path id="Path_967" data-name="Path 967" d="M3316.881,4649.3a1.254,1.254,0,0,1-1.18,1.169,1.216,1.216,0,0,1-1.2-1.231,1.152,1.152,0,0,1,1.258-1.139A1.179,1.179,0,0,1,3316.881,4649.3Z" transform="translate(-3287.881 -4594.864)" fill="#2672ab" stroke="#2672ab" stroke-width="1"/>
    <path id="Path_968" data-name="Path 968" d="M3266.043,4578.366a1.218,1.218,0,0,1-1.223,1.207,1.234,1.234,0,0,1-1.153-1.19,1.169,1.169,0,0,1,1.227-1.181A1.155,1.155,0,0,1,3266.043,4578.366Z" transform="translate(-3246.453 -4537.167)" fill="#2672ab" stroke="#2672ab" stroke-width="1"/>
    <path id="Path_969" data-name="Path 969" d="M3405.69,4430.035a1.232,1.232,0,0,1-1.221-1.214,1.215,1.215,0,0,1,1.174-1.163,1.189,1.189,0,0,1,.047,2.377Z" transform="translate(-3361.193 -4415.686)" fill="#2672ab" stroke="#2672ab" stroke-width="1"/>
    <path id="Path_970" data-name="Path 970" d="M3453.785,4402.944a1.171,1.171,0,0,1-1.133,1.187,1.189,1.189,0,1,1,0-2.376A1.18,1.18,0,0,1,3453.785,4402.944Z" transform="translate(-3399.442 -4394.519)" fill="#2672ab" stroke="#2672ab" stroke-width="1"/>
    <path id="Path_971" data-name="Path 971" d="M3399.953,4382.683a1.142,1.142,0,0,1,1.154,1.149,1.185,1.185,0,0,1-1.191,1.223,1.237,1.237,0,0,1-1.175-1.169A1.194,1.194,0,0,1,3399.953,4382.683Z" transform="translate(-3356.526 -4378.936)" fill="#2672ab" stroke="#2672ab" stroke-width="1"/>
    <path id="Path_972" data-name="Path 972" d="M3362.833,4443.178a1.188,1.188,0,0,1-2.375-.021,1.188,1.188,0,1,1,2.375.021Z" transform="translate(-3325.328 -4427.12)" fill="#2672ab" stroke="#2672ab" stroke-width="1"/>
    <path id="Path_973" data-name="Path 973" d="M3397.428,4468.1a1.153,1.153,0,0,1-1.242,1.156,1.081,1.081,0,0,1-1.106-1.183,1.105,1.105,0,0,1,1.133-1.171A1.176,1.176,0,0,1,3397.428,4468.1Z" transform="translate(-3353.542 -4447.405)" fill="#2672ab" stroke="#2672ab" stroke-width="1"/>
  </g>
</svg>

