<svg xmlns="http://www.w3.org/2000/svg" width="86.333" height="66.108" viewBox="0 0 86.333 66.108">
  <g id="Group_201" data-name="Group 201" transform="translate(0)">
    <path id="Path_974" data-name="Path 974" d="M4047.98,4551.843c.326-.226.554-.373.771-.535a16.809,16.809,0,0,1,5.164-2.6,2.8,2.8,0,0,1,2.975.6,2.739,2.739,0,0,1,.633,2.961,16.973,16.973,0,0,1-2.622,5.246c-.134.18-.269.359-.394.545-.027.04-.013.106-.023.217a16.451,16.451,0,0,1,5.229,1.4,12.2,12.2,0,0,1,1.344.7,2.685,2.685,0,0,1,0,4.711,15.173,15.173,0,0,1-6.021,2.032c-.183.023-.367.042-.665.076.238.336.408.582.584.823a17.2,17.2,0,0,1,2.544,5.1,2.782,2.782,0,0,1-.609,3.042,2.835,2.835,0,0,1-3.052.577,16.991,16.991,0,0,1-5.221-2.67c-.2-.146-.4-.287-.532-.383-.451,1.551-.87,3.087-1.353,4.6a8.965,8.965,0,0,1-.791,1.672,2.7,2.7,0,0,1-4.792.016,16.691,16.691,0,0,1-1.94-5.885c-.02-.135-.047-.271-.085-.489-.251.178-.453.313-.646.458a16.665,16.665,0,0,1-5.381,2.718,2.749,2.749,0,0,1-2.893-.609,2.7,2.7,0,0,1-.663-2.876,16.916,16.916,0,0,1,2.583-5.265c.162-.223.32-.449.549-.771-.333-.06-.566-.109-.8-.144a16.4,16.4,0,0,1-5.708-1.937,2.73,2.73,0,0,1-.058-4.851,15.9,15.9,0,0,1,5.7-1.954c.244-.035.487-.082.853-.144-.3-.452-.552-.837-.814-1.215a15.048,15.048,0,0,1-2.316-5.013,2.694,2.694,0,0,1,3.5-3.338,16.235,16.235,0,0,1,5.324,2.648c.215.161.442.306.566.393.478-1.719.926-3.414,1.431-5.091a8.982,8.982,0,0,1,.736-1.6,2.746,2.746,0,0,1,4.938.011A17.271,17.271,0,0,1,4047.98,4551.843Zm6.828,22.216a12.055,12.055,0,0,0-7.007-8.27l-1.215,1.264A12.029,12.029,0,0,0,4054.808,4574.059Zm-22.532.139a20.189,20.189,0,0,0,1.969-.777c2.548-1.325,4.874-2.836,5.631-5.924a1.363,1.363,0,0,0-.619-1.648A11.694,11.694,0,0,0,4032.275,4574.2Zm22.666-22.893c-3.667.928-7.072,3.795-8.105,6.749l1.349,1.463A12.549,12.549,0,0,0,4054.941,4551.3Zm-27.34,11.322c-.009.08-.018.161-.027.241.639.28,1.265.594,1.919.834a10.874,10.874,0,0,0,6.033.659,7.343,7.343,0,0,0,2.489-1.14c.231-.155.077-.885.1-1.351,0-.026-.021-.052-.055-.127A12.246,12.246,0,0,0,4027.6,4562.627Zm12.687-4.5a11.59,11.59,0,0,0-8.041-6.712,3.6,3.6,0,0,0,.087.491,11.767,11.767,0,0,0,2.189,4.127,15.247,15.247,0,0,0,2.494,2.345,3.815,3.815,0,0,0,2.024.706C4039.434,4559.1,4039.847,4558.491,4040.289,4558.131Zm3.255-11.706a12.221,12.221,0,0,0-1.561,8.016,9.541,9.541,0,0,0,.741,2.2,1.059,1.059,0,0,0,1.6.079,4.259,4.259,0,0,0,.544-1.131A12.291,12.291,0,0,0,4043.544,4546.425Zm16.115,16.3a12.113,12.113,0,0,0-8.193-1.545,9.193,9.193,0,0,0-2.235.91.813.813,0,0,0-.043,1.269,7.548,7.548,0,0,0,2.149.9,14.777,14.777,0,0,0,3.511.108A11.486,11.486,0,0,0,4059.659,4562.726Zm-16.067,15.828a13.387,13.387,0,0,0,1.52-4.612,7.381,7.381,0,0,0-.752-5.2c-.571-.9-.494-.95-1.684-.85C4041.295,4570.761,4041.708,4575.929,4043.592,4578.554Zm-.025-13.439a2.661,2.661,0,0,0,2.649-2.7,2.674,2.674,0,1,0-5.348.049A2.658,2.658,0,0,0,4043.567,4565.115Z" transform="translate(-3977.452 -4520.07)" fill="#2672ab"/>
    <path id="Path_975" data-name="Path 975" d="M3928.947,4509.662l-2.221-1.976c.51-.209,1.031-.424,1.552-.637a3.019,3.019,0,0,0,1.972-3.772c-.146-.657-.313-1.31-.474-1.964-.488-1.98-1.692-2.639-3.654-2-3.334,1.088-6.671,2.17-10,3.275a1.92,1.92,0,0,1-1.373-.011,5.249,5.249,0,0,0-6.352,2.083,1.8,1.8,0,0,1-1.025.789c-1.712.541-3.414,1.117-5.126,1.658-.341.108-.722.088-1.068.187-.854.241-1.709.489-2.544.789-.548.2-1.043.545-1.595.727q-10.037,3.3-20.084,6.567c-.186.061-.367.13-.647.23a9.933,9.933,0,0,1,3.152,10.441l12.63-4.911a8.645,8.645,0,0,0-.643,2.121c-.032,1.019-.581,1.325-1.406,1.639-4.618,1.754-9.214,3.563-13.819,5.352a8.345,8.345,0,0,1-4.344.744,7.365,7.365,0,0,1-5.442-3.848,9.093,9.093,0,0,1-.1-9.751,6.46,6.46,0,0,1,5.076-3.2,7.919,7.919,0,0,0,1.543-.392q25.928-8.467,51.853-16.945a6.556,6.556,0,0,1,3.461-.456,5.012,5.012,0,0,1,4.011,3.657,29.271,29.271,0,0,1,.749,3.11A5.61,5.61,0,0,1,3928.947,4509.662Zm-51.8,13.545a6.825,6.825,0,0,0-2.381-5.221,3.972,3.972,0,0,0-5.548.119c-2.825,2.865-1.373,8.809,2.458,10.028a3.688,3.688,0,0,0,3.949-.965A5.623,5.623,0,0,0,3877.148,4523.207Z" transform="translate(-3846.791 -4481.484)" fill="#2672ab"/>
    <path id="Path_976" data-name="Path 976" d="M3792.774,4503.115a9.212,9.212,0,0,1-1.671,4.819,2.888,2.888,0,0,0-.454,1.125c-.2,1.112-.334,1.277-1.449,1.407a8.518,8.518,0,0,0-4.4,1.747,2.048,2.048,0,0,1-1.912.55,1.762,1.762,0,0,0-1.776.616,51.235,51.235,0,0,1-8.6,6.6,12.628,12.628,0,0,1-1.435.7,4.368,4.368,0,0,1-4.783-.851,3.239,3.239,0,0,1-.048-5.13c1.331-1.249,2.7-2.463,3.967-3.771,1.464-1.509,2.835-3.109,4.259-4.659a1.336,1.336,0,0,0,.3-1.439,6.324,6.324,0,0,1,.855-5.925,3.523,3.523,0,0,1,2.828-1.59,1.593,1.593,0,0,0,.864-.42,8.087,8.087,0,0,1,13.012,3.826A20.2,20.2,0,0,1,3792.774,4503.115Zm-14.359-3.081a2.8,2.8,0,0,0-1.239,2.242,5.6,5.6,0,0,0,.633,2.928,1.054,1.054,0,0,1-.106,1.233c-.454.606-.861,1.25-1.336,1.837a76.042,76.042,0,0,1-7.92,8.136c-.912.835-.846,1.325.317,1.746a1.89,1.89,0,0,0,1.206,0,10.309,10.309,0,0,0,1.866-.957,60.446,60.446,0,0,0,8.519-6.846,1.67,1.67,0,0,1,1.549-.505,19.662,19.662,0,0,0,3.765.189,4.676,4.676,0,0,0,1.84-.707.867.867,0,0,0,.339-.767c-.063-.215-.435-.4-.706-.479a5.612,5.612,0,0,0-1-.058,6.244,6.244,0,0,1-3.11-.858c.279-.312.521-.548.721-.815a1.729,1.729,0,0,0,.066-2.112,1.59,1.59,0,0,0-1.983-.414c-.432.176-.833.432-1.3.679C3779.387,4503.242,3779.549,4501.354,3778.415,4500.034Zm10.714,5.8a5.3,5.3,0,0,0-1.363-7.075c-2.064-1.509-5.253-1.356-6.6.33l.772,1.809c3.264.189,4.1.915,5.055,4.308Z" transform="translate(-3765.003 -4480.38)" fill="#2672ab"/>
    <path id="Path_977" data-name="Path 977" d="M3895.551,4698.963a13.412,13.412,0,0,1-10.6-4.849c-3.171-3.594-.378-6.762,2.742-7.291a12.581,12.581,0,0,1,2.26-.184,11.1,11.1,0,0,0,4.972-1.09c1.539-.734,3.032-1.574,4.5-2.44a11.007,11.007,0,0,1,3.622-1.72,3.558,3.558,0,0,1,3.833,1.675,7.748,7.748,0,0,1,.917,5.359c-.685,6.25-5.784,9.635-10.427,10.35C3896.656,4698.884,3895.926,4698.926,3895.551,4698.963Zm8.257-14.755-.109-.156a5.337,5.337,0,0,0-1,.324c-.687.376-1.349.8-2.012,1.219-3.462,2.181-7.065,3.921-11.307,3.8a10.553,10.553,0,0,0-1.83.269c.1.233.184.318.279.33a22.993,22.993,0,0,0,2.477.282c.83.018,1.418.347,1.577,1.075a1.243,1.243,0,0,1-1.047,1.554,5.937,5.937,0,0,1-1.577.16,13.936,13.936,0,0,1-1.532-.169c.011.1,0,.134.019.153a1.374,1.374,0,0,0,.166.189,10.329,10.329,0,0,0,11.4,2.153,8.562,8.562,0,0,0,5.785-7.321c.034-.28.031-.564.052-1.015-.358.33-.549.532-.765.7q-1.384,1.094-2.782,2.168a2.311,2.311,0,0,1-.437.251,1.351,1.351,0,0,1-1.822-.529,1.38,1.38,0,0,1,.469-1.842c1.082-.839,2.156-1.692,3.2-2.578A6.373,6.373,0,0,0,3903.808,4684.208Z" transform="translate(-3862.002 -4632.855)" fill="#2672ab"/>
    <path id="Path_978" data-name="Path 978" d="M3958.827,4443.543a4.935,4.935,0,0,0-.476.217,61.862,61.862,0,0,0-10.093,7.417,28.608,28.608,0,0,0-6.653,9.636,1.375,1.375,0,0,1-1,.89c-.745.2-1.472.47-2.351.758a14.824,14.824,0,0,1,1.469-4.25,33.3,33.3,0,0,1,10.748-12.417c2.05-1.424,4.047-2.939,6.187-4.214a34.335,34.335,0,0,1,4.9-2.2,4.791,4.791,0,0,1,1.9-.269,1.268,1.268,0,0,1,1.189,1.842c-1.284,2.216-1.359,4.719-1.913,7.112-.493,2.131-1.109,4.233-1.654,6.351a1.123,1.123,0,0,1-.883.887c-.825.226-1.632.518-2.657.849a44.546,44.546,0,0,0,2.576-9.69c-.159.167-.326.328-.477.5a92.629,92.629,0,0,0-7.766,10.479,2.225,2.225,0,0,1-1.355,1.021c-1.016.289-2.014.64-3.02.965l-.153-.159c1.809-2.681,3.543-5.416,5.447-8.027C3954.687,4448.654,3956.75,4446.184,3958.827,4443.543Z" transform="translate(-3906.76 -4434.682)" fill="#2672ab"/>
    <path id="Path_979" data-name="Path 979" d="M4096.144,4454.138l.764,1.615c-.773.257-1.523.536-2.293.739a.681.681,0,0,1-.551-.334,21.386,21.386,0,0,1-.969-2.416,19.558,19.558,0,0,0-1.657-4.573,1.272,1.272,0,0,1,.87-1.914,19.051,19.051,0,0,0,4.391-1.667,23.685,23.685,0,0,1,2.684-.981,7.4,7.4,0,0,1,4.322.02,11.817,11.817,0,0,1,7.205,5.7c.094.172.184.348.26.528a1.162,1.162,0,0,1,.034.286l-2.538.767a9.026,9.026,0,0,0-6.127-4.734,4.578,4.578,0,0,0-3.281.435,21.834,21.834,0,0,1,8.965,4.46c-1.052.348-1.969.688-2.911.936a1.292,1.292,0,0,1-.827-.277,20.643,20.643,0,0,0-7.715-2.776,5.8,5.8,0,0,0-.671-.052c-.042,0-.084.049-.2.119a20.722,20.722,0,0,0,5.764,4.188c-1.215.4-2.254.767-3.313,1.062-.212.059-.517-.136-.754-.263-.5-.27-.984-.571-1.475-.86l.05-.047Z" transform="translate(-4031.937 -4438.923)" fill="#2672ab"/>
    <path id="Path_980" data-name="Path 980" d="M3912.627,4414.751a10.134,10.134,0,0,1,4.955,1.4,6.191,6.191,0,0,1,2.744,7.563,8.776,8.776,0,0,1-2.115,3.4c-1.816,1.791-3.663,3.552-5.522,5.3a2.121,2.121,0,0,1-3.473-.562,33.928,33.928,0,0,1-3.27-9.241,6.606,6.606,0,0,1,1.469-5.751A6.513,6.513,0,0,1,3912.627,4414.751Zm-1.373,15.139a3,3,0,0,0,.356-.237c1.581-1.514,3.22-2.973,4.708-4.574a7.49,7.49,0,0,0,1.48-2.595,3.154,3.154,0,0,0-1.315-3.766,6.658,6.658,0,0,0-4.712-1.176,3.4,3.4,0,0,0-3.182,3.513,4.405,4.405,0,0,0,.094,1.336c.416,1.483.855,2.961,1.349,4.42C3910.38,4427.842,3910.832,4428.837,3911.254,4429.89Z" transform="translate(-3880.213 -4414.751)" fill="#2672ab"/>
    <path id="Path_981" data-name="Path 981" d="M3798.467,4666.341a7.43,7.43,0,1,1-7.42-7.49A7.459,7.459,0,0,1,3798.467,4666.341Zm-12.125-.058a4.7,4.7,0,1,0,4.743-4.687A4.748,4.748,0,0,0,3786.343,4666.283Z" transform="translate(-3780.225 -4614.472)" fill="#2672ab"/>
    <path id="Path_982" data-name="Path 982" d="M3827.16,4686.424a1.354,1.354,0,1,1-1.363-1.4A1.363,1.363,0,0,1,3827.16,4686.424Z" transform="translate(-3813.644 -4635.887)" fill="#2672ab"/>
  </g>
</svg>
