<svg xmlns="http://www.w3.org/2000/svg" width="66.183" height="73.714" viewBox="0 0 66.183 73.714">
  <g id="Group_208" data-name="Group 208" transform="translate(0.5 0.5)">
    <path id="Path_993" data-name="Path 993" d="M3505.4,5320.507c2.05-1.687,3.546-2.974,5.1-4.187,3.825-2.988,8.533-2.611,11.425.88,2.837,3.425,2.3,8.222-1.285,11.4-1.131,1-2.3,1.969-3.637,3.117.911.544,1.717.95,2.44,1.471a7.92,7.92,0,0,1-2.657,14.3,12.559,12.559,0,0,1-2.813.3c-6.067.027-12.135.01-18.2.02a9.915,9.915,0,0,1-6.545-2.3,5.687,5.687,0,0,0-3.3-1.049c-6.635-.1-13.272-.04-19.908-.053-5.423-.01-7.41-1.973-7.417-7.333-.011-8.44.056-16.88-.032-25.319a11.781,11.781,0,0,1,3.005-8.326c1.634-1.843,3.187-3.76,4.76-5.658,2.142-2.585,1.993-5.059-.161-7.667a5.7,5.7,0,0,1-1.147-3.081c-.166-2.454-.108-4.929-.04-7.393.08-2.919,1.455-4.438,4.393-4.468q12.654-.13,25.311,0c2.753.029,4.175,1.532,4.3,4.294a66.569,66.569,0,0,1-.036,7.675,5.685,5.685,0,0,1-1.238,3.056,5.51,5.51,0,0,0-.158,7.5c1.752,2.119,3.531,4.215,5.3,6.323a10.556,10.556,0,0,1,2.555,7.059C3505.384,5314,3505.4,5316.936,3505.4,5320.507Zm-2.545-11.029h-41.6v26.187a4.01,4.01,0,0,0,.946.288q12.083.036,24.165.032a2.475,2.475,0,0,0,1.36-.261,66.438,66.438,0,0,0,5.352-4.057c2.9-2.558,5.693-5.238,8.493-7.907.522-.5,1.213-1.177,1.229-1.788C3502.906,5317.829,3502.854,5313.682,3502.854,5309.478Zm-40.562-2.879h39.364c-.953-1.147-1.589-1.94-2.251-2.709-3.042-3.528-6.634-6.771-6.2-12.176h-22.817a11.042,11.042,0,0,0-.105,1.934,7.03,7.03,0,0,1-2.246,6.1C3466.1,5301.8,3464.4,5304.064,3462.293,5306.6Zm19.592-28.809c-3.885,0-7.771-.03-11.655.011-2.421.025-2.667.262-2.736,2.549-.06,1.989.029,3.981-.018,5.971-.043,1.839.837,2.485,2.612,2.475q11.939-.064,23.878,0c1.638.007,2.473-.581,2.419-2.322-.064-2.083-.074-4.172.006-6.254.071-1.869-.779-2.489-2.568-2.456C3489.846,5277.837,3485.865,5277.786,3481.885,5277.791Zm24.37,67.3c3.273,0,6.28.108,9.275-.032a5,5,0,0,0,4.781-4.721c.263-2.749-1.235-5.375-3.95-5.7a87.162,87.162,0,0,0-10.107-.092Zm6.292-13.007c2.484-2.112,4.883-3.968,7.059-6.056a5.121,5.121,0,0,0,.5-6.991,5.064,5.064,0,0,0-6.824-1.465c-2.69,1.829-5.107,4.062-7.737,6.2Zm-9.083,13v-10.721c-3.179,0-6.189-.158-9.175.045a5.247,5.247,0,0,0-4.834,5.352,5.123,5.123,0,0,0,4.538,5.279C3497.076,5345.226,3500.18,5345.082,3503.464,5345.082Zm-42.239-6.317c.437,2.472,1.9,2.981,3.762,2.978,4.345-.007,8.69,0,13.035,0h8.985l-.367-2.981Zm35.022-7.164h12.49l-5.136-6.174Z" transform="translate(-3458.562 -5275.097)" fill="#2672ab" stroke="#2672ab" stroke-width="1"/>
    <path id="Path_994" data-name="Path 994" d="M3553.9,5541.838a14.81,14.81,0,0,0,.126-1.478c-.081-4.9-.057-4.465,4.467-4.477.757,0,1.516.044,2.27,0,1.738-.108,2.384.761,2.317,2.4-.049,1.2-.01,2.4-.01,3.9,1.478,0,2.592.064,3.7-.015,1.772-.127,2.688.519,2.593,2.408-.07,1.416-.057,2.84,0,4.258.064,1.732-.812,2.379-2.433,2.331-1.121-.033-2.245-.006-3.675-.006-.067,1.246-.142,2.248-.17,3.25-.077,2.737-.268,3.026-2.855,3.014-1.866-.009-4.294.4-5.432-.584-1.067-.923-.768-3.426-1.118-5.523l-3.2-.149c-2.417-.111-2.7-.307-2.682-2.582.016-1.959-.417-4.417.576-5.715C3549.163,5541.813,3551.792,5542.157,3553.9,5541.838Zm12.806,6.709c-.084-1.564-.141-2.638-.209-3.9-1.445,0-2.571-.054-3.689.013-1.7.1-2.421-.665-2.4-2.337.014-1.277-.1-2.557-.157-3.781h-3.71c0,1.365-.05,2.574.012,3.778.087,1.693-.636,2.443-2.346,2.341-1.194-.071-2.4-.014-3.763-.014v3.9c1.37,0,2.576.044,3.778-.011,1.707-.079,2.416.713,2.339,2.384-.055,1.2-.011,2.407-.011,3.683h3.871c0-1.408,0-2.618,0-3.829-.007-1.508.685-2.281,2.247-2.234C3563.868,5548.577,3565.078,5548.547,3566.7,5548.547Z" transform="translate(-3535.113 -5499.046)" fill="#2672ab" stroke="#2672ab" stroke-width="1"/>
    <path id="Path_995" data-name="Path 995" d="M3641.031,5309.547a15.039,15.039,0,0,1-.215,2.748,1.575,1.575,0,0,1-1.159.96,1.513,1.513,0,0,1-1.147-.947,49.8,49.8,0,0,1-.007-5.859,1.519,1.519,0,0,1,1.146-.958,1.556,1.556,0,0,1,1.158.959A19.8,19.8,0,0,1,3641.031,5309.547Z" transform="translate(-3613.022 -5301.199)" fill="#2672ab" stroke="#2672ab" stroke-width="1"/>
    <path id="Path_996" data-name="Path 996" d="M3547.1,5309.152a8.479,8.479,0,0,1,.046-2.251,6.06,6.06,0,0,1,1.139-1.633c.424.512,1.156.992,1.212,1.542a23.068,23.068,0,0,1-.009,4.8c-.057.532-.817.988-1.257,1.48-.374-.463-.956-.88-1.073-1.4a11.735,11.735,0,0,1-.048-2.537Z" transform="translate(-3534.548 -5301.007)" fill="#2672ab" stroke="#2672ab" stroke-width="1"/>
    <path id="Path_997" data-name="Path 997" d="M3592.63,5309.491a15.027,15.027,0,0,1,.056-2.814,1.534,1.534,0,0,1,1.17-.921,1.471,1.471,0,0,1,1.071.982,48.855,48.855,0,0,1,.016,5.644c-.021.393-.79,1.124-.984,1.054a2.109,2.109,0,0,1-1.293-1.131,12.891,12.891,0,0,1-.059-2.813Z" transform="translate(-3573.635 -5301.426)" fill="#2672ab" stroke="#2672ab" stroke-width="1"/>
    <path id="Path_998" data-name="Path 998" d="M3686.435,5309.269a11.2,11.2,0,0,1-.05,2.534c-.122.515-.729.914-1.119,1.365-.42-.407-1.17-.789-1.2-1.227a34.869,34.869,0,0,1,.006-5.363c.034-.433.782-.809,1.2-1.211.387.451.992.853,1.113,1.366A11.413,11.413,0,0,1,3686.435,5309.269Z" transform="translate(-3652.134 -5301.093)" fill="#2672ab" stroke="#2672ab" stroke-width="1"/>
  </g>
</svg>
