<svg xmlns="http://www.w3.org/2000/svg" width="76" height="80.548" viewBox="0 0 76 80.548">
  <g id="Group_202" data-name="Group 202" transform="translate(0.5 0.51)">
    <path id="Path_983" data-name="Path 983" d="M4374.316,4425.695c0,1.276.093,2.562-.019,3.829a4.69,4.69,0,0,1-5.615,4.229,6.1,6.1,0,0,1-2.606-1.28,9.819,9.819,0,0,1-3.937-7.99,2.47,2.47,0,0,1,0-.39.762.762,0,0,0-.549-.89,22.8,22.8,0,0,1-6.533-4.445,26.324,26.324,0,0,1-4.017-4.934,25.587,25.587,0,0,1-3.523-8.967,26.532,26.532,0,0,1-.154-8.86,25.283,25.283,0,0,1,3.988-10.422A27.883,27.883,0,0,1,4364,4375.2a29.191,29.191,0,0,1,11.739-2.26c.5,0,1,.052,1.493.1a1.463,1.463,0,0,0,1.13-.368,21.311,21.311,0,0,1,19.658-3.735c.182.054.364.11.545.166l.094-.118c-.494-.468-.993-.932-1.48-1.407a5.325,5.325,0,0,1-1.168-6.54,5.028,5.028,0,0,1,3.22-2.664,7.585,7.585,0,0,1,7.731,1.81c2.746,2.652,5.414,5.388,8.043,8.155a24.372,24.372,0,0,1,4.056,6.027,28.17,28.17,0,0,1,2.566,7.816,29.408,29.408,0,0,1,.125,9.319,27.913,27.913,0,0,1-5.392,12.947,1.538,1.538,0,0,0-.288,1.588,24.776,24.776,0,0,1,1.1,10.273,23.652,23.652,0,0,1-6.8,14.286,23.779,23.779,0,0,1-8.167,5.34,23.122,23.122,0,0,1-10.147,1.558,21.393,21.393,0,0,1-17.454-11.541c-.047-.093-.1-.186-.149-.278Zm45.62-39.3a27.3,27.3,0,0,0-.929-6.227,25.473,25.473,0,0,0-5.858-10.746c-2.063-2.229-4.243-4.349-6.377-6.511a20.027,20.027,0,0,0-1.457-1.395,5.724,5.724,0,0,0-5.317-1.157,3.266,3.266,0,0,0-2.406,3.84,3.8,3.8,0,0,0,1.176,1.979q3.933,3.94,7.875,7.871a19.775,19.775,0,0,1,3.652,4.879,19.173,19.173,0,0,1,2.181,10.17,18.694,18.694,0,0,1-2.236,7.947,18.188,18.188,0,0,1-8.633,8.172,17.388,17.388,0,0,1-10.562,1.2,16.372,16.372,0,0,1-7.281-3.3c-4.971-3.979-7.112-9.13-6.127-15.45a14.835,14.835,0,0,1,4.823-8.859,14.14,14.14,0,0,1,12.035-3.634,13.626,13.626,0,0,1,7.264,3.4,11.053,11.053,0,0,1,3.827,10.983,13.813,13.813,0,0,1-4.807,7.916,9.55,9.55,0,0,1-6.668,2.342,10.725,10.725,0,0,1-6.7-2.533,8.636,8.636,0,0,1-3.252-7.766,9.083,9.083,0,0,1,3.024-5.955,8.3,8.3,0,0,1,3.957-2.13,7.234,7.234,0,0,1,7.139,2.483,6.262,6.262,0,0,1-.323,8.851,4.772,4.772,0,0,1-4.729,1.077,5.389,5.389,0,0,1-2.509-1.314,1.017,1.017,0,0,1-.372-1.1.911.911,0,0,1,.818-.736,1.906,1.906,0,0,1,1.05.373,3.72,3.72,0,0,0,2.8.8,2.559,2.559,0,0,0,1.363-.524,4.245,4.245,0,0,0-.477-6.745,5.141,5.141,0,0,0-6.123-.381,7.341,7.341,0,0,0-3.271,4.456,6.317,6.317,0,0,0,1.493,6.287,8.453,8.453,0,0,0,3.978,2.367,7.8,7.8,0,0,0,6.679-.913,11.812,11.812,0,0,0,4.127-5.01,9.288,9.288,0,0,0-2.452-11.266,12.135,12.135,0,0,0-9.284-2.944,11.649,11.649,0,0,0-6.074,2.271,13.028,13.028,0,0,0-5.427,10.023A13.376,13.376,0,0,0,4385,4401.4a14.968,14.968,0,0,0,10.337,3.178,14.556,14.556,0,0,0,9.321-3.826,16.685,16.685,0,0,0,5.483-15.567,16.87,16.87,0,0,0-7.849-11.906,19.463,19.463,0,0,0-18.229-1.579,20.049,20.049,0,0,0-10.734,11.235,21.582,21.582,0,0,0,3.918,22.379,23.971,23.971,0,0,0,21.282,7.661,24.019,24.019,0,0,0,7.707-2.471,25.264,25.264,0,0,0,10.632-10.766A27.1,27.1,0,0,0,4419.936,4386.395Zm-44.279-11.2-.042-.143c-1.223.08-2.451.113-3.666.251a26.11,26.11,0,0,0-12.26,4.705,24.809,24.809,0,0,0-6.673,6.867,23.694,23.694,0,0,0-3.541,9.356,24.051,24.051,0,0,0,.141,8.279,23.563,23.563,0,0,0,5.726,11.5,21.611,21.611,0,0,0,4.487,3.838,20.992,20.992,0,0,0,9.317,3.234,21.934,21.934,0,0,0,7.244-.41,21.5,21.5,0,0,0,9.328-4.826,18.049,18.049,0,0,0,2.926-3.244c-.147-.066-.24-.114-.338-.149-1.4-.51-2.817-1-4.21-1.541a.823.823,0,0,0-1.025.211,15.252,15.252,0,0,1-4.369,3.019,15.649,15.649,0,0,1-11.111.84,15.469,15.469,0,0,1-8.573-6.125,16.757,16.757,0,0,1-2.373-16c2.275-6.41,7-10.225,13.546-11.835a1.609,1.609,0,0,0,1.292-1.076,21.253,21.253,0,0,1,3.755-6.2C4375.386,4375.572,4375.517,4375.38,4375.656,4375.2Zm38.626,32.029-.264-.085a3.009,3.009,0,0,1-.393.516c-1.187,1.014-2.349,2.061-3.587,3.006-1.307,1-1.152.479-.958,2.119.01.085.012.173.017.26a16.481,16.481,0,0,1-1.013,6.959,15.7,15.7,0,0,1-7.5,8.4,15.08,15.08,0,0,1-8.616,1.717,14.335,14.335,0,0,1-6-1.968,13.8,13.8,0,0,1-4.606-4.333.629.629,0,0,0-.868-.273c-1.207.417-2.433.78-3.65,1.167-.119.038-.233.092-.375.149a2.3,2.3,0,0,0,.1.264,18.681,18.681,0,0,0,3.141,4.375,18.951,18.951,0,0,0,11.849,5.792,20.915,20.915,0,0,0,9.227-1.094,21.613,21.613,0,0,0,13.572-14.4,22.206,22.206,0,0,0,.55-9.537C4414.741,4409.242,4414.49,4408.237,4414.282,4407.225Zm-43.972-22.04c-.183.032-.268.04-.35.062a16.359,16.359,0,0,0-8.847,5.752,15.451,15.451,0,0,0,1.208,20.516,13.785,13.785,0,0,0,17.187,1.775c.719-.466,1.369-1.039,2.084-1.588l-3.848-2.826c-.223.155-.415.295-.613.428a9.031,9.031,0,0,1-13.04-3.2c-2.069-3.8-2.1-7.588.377-11.24a13.061,13.061,0,0,1,4.58-3.978,1.049,1.049,0,0,0,.643-1,22.405,22.405,0,0,1,.236-2.391C4370.027,4386.744,4370.173,4386,4370.311,4385.185Zm12.542,37.317a29.2,29.2,0,0,0,2.355,2.5c4.135,3.472,8.774,3.97,13.637,1.888a13.555,13.555,0,0,0,8.1-13.743,4.269,4.269,0,0,0-.1-.485,1.421,1.421,0,0,0-.242.038c-1.293.5-2.577,1.022-3.879,1.5-.375.136-.417.361-.418.69a7.808,7.808,0,0,1-1.147,4.016,8.95,8.95,0,0,1-8.224,4.567,7.655,7.655,0,0,1-6.392-3.042,2.489,2.489,0,0,1-.169-.293C4385.19,4420.929,4384.1,4421.663,4382.853,4422.5Zm-13.167-29.526a10.708,10.708,0,0,0-3.472,3.1,8.153,8.153,0,0,0-.125,9.247,6.725,6.725,0,0,0,8.135,3.048,19.738,19.738,0,0,0,2.057-.987,24.478,24.478,0,0,1-5.318-8.607,3.033,3.033,0,0,0-.415,2.079,3.876,3.876,0,0,0,.857,2,1.068,1.068,0,0,1-.04,1.616,1.048,1.048,0,0,1-1.577-.3,7.176,7.176,0,0,1-.815-1.247c-.934-1.877-.831-4.711.972-6.159a.792.792,0,0,0,.253-.607C4370.062,4395.128,4369.874,4394.109,4369.686,4392.976Zm18.283,25.748a4.755,4.755,0,0,0,2.82,2.283,7.311,7.311,0,0,0,6.076-.724,6.14,6.14,0,0,0,3.075-3.787c.137-.5.18-1.035.273-1.594a3.24,3.24,0,0,0-.456,0,24.255,24.255,0,0,1-8.29.185.771.771,0,0,0-.821.347c-.793,1-1.622,1.978-2.435,2.964C4388.131,4418.5,4388.059,4418.6,4387.969,4418.723Zm-23.72,5.55a7.724,7.724,0,0,0,3.569,6.819,3.816,3.816,0,0,0,1.484.607,2.5,2.5,0,0,0,2.855-2.3c.091-1.121.05-2.252.052-3.38,0-.626-.015-.617-.68-.647a26.576,26.576,0,0,1-5.227-.582C4365.654,4424.635,4365.008,4424.467,4364.249,4424.273Z" transform="translate(-4347.066 -4358.013)" fill="#2672ab" stroke="#2672ab" stroke-width="1"/>
  </g>
</svg>

