<svg xmlns="http://www.w3.org/2000/svg" xmlns:xlink="http://www.w3.org/1999/xlink" width="130.75" height="130.886" viewBox="0 0 130.75 130.886">
  <defs>
    <filter id="Rectangle_25" x="25.75" y="60.886" width="105" height="70" filterUnits="userSpaceOnUse">
      <feOffset dy="3" input="SourceAlpha"/>
      <feGaussianBlur stdDeviation="3" result="blur"/>
      <feFlood flood-color="#fbca01" flood-opacity="0.42"/>
      <feComposite operator="in" in2="blur"/>
      <feComposite in="SourceGraphic"/>
    </filter>
  </defs>
  <g id="Group_186" data-name="Group 186" transform="translate(-1450.25 -1087.114)">
    <g transform="matrix(1, 0, 0, 1, 1450.25, 1087.11)" filter="url(#Rectangle_25)">
      <rect id="Rectangle_25-2" data-name="Rectangle 25" width="87" height="52" rx="8" transform="translate(34.75 66.89)" fill="#fbca01"/>
    </g>
    <g id="Group_181" data-name="Group 181" transform="translate(1451 1087.863)">
      <path id="Path_928" data-name="Path 928" d="M3986.633,5217.6c.661-.966,1.659-.937,2.67-.935,6.184.009,12.368,0,18.771,0a16.133,16.133,0,0,1,7.408-6.853c2.392-7.538,6.31-10.822,12.505-10.553,5.711.248,9.584,3.837,11.095,10.419a17.831,17.831,0,0,1,7.537,7.009h20.865a9.964,9.964,0,0,1,.582,2.235q.081,5.971.012,11.944c-.016,1.565-.813,2.33-2.007,2.067-1.136-.25-1.343-1.113-1.339-2.114.01-3.128.007-6.257.008-9.385,0-.419,0-.838,0-1.379h-16.605c0,2.474,1.037,4.9.251,7.25-1.575.646-38.079.9-41.763.319-1.455-2.374-.039-4.864-.021-7.508h-16.526v84.86H4064.5c.083-.813.161-1.573.234-2.29,1.454-1.285,1.454-1.285,3.026.067.11,1.875.487,3.846-.475,5.73h-79.794l-.854-.854Zm22.713,6.785h35.675c-.395-6.28-3.661-10.25-9.155-12.342-.4-1.812-.481-3.523-1.179-4.926a8.523,8.523,0,0,0-3.045-3.4,10.734,10.734,0,0,0-4.622-1.283,7.569,7.569,0,0,0-5.128,1.752,7.757,7.757,0,0,0-3.013,6.958,75.376,75.376,0,0,0-6.607,5.386C4010.28,5218.57,4009.669,5221.346,4009.347,5224.384Z" transform="translate(-3986.633 -5199.248)" fill="#2672ab" stroke="#2672ab" stroke-linecap="round" stroke-width="1.5"/>
      <path id="Path_929" data-name="Path 929" d="M4309.524,5593.442l-15.745-10c-1.643,4.966-4.565,8.542-9.206,10.543a15.675,15.675,0,0,1-10.431.766,16.123,16.123,0,0,1-11.892-16.027c.171-8.2,5.379-13.483,15.741-15.8v-17.889l31.472-16.88,31.632,17.314v31.123Zm1.642-5.007,26.543-13.919v-24.982l-7.049,3.79v10.095c-2.526,1.388-4.873,2.707-7.248,3.972-2.181,1.161-3.172.565-3.2-1.9-.025-2.025,0-4.051,0-6.463l-9.04,4.929Zm-3.69-24.656-26.405-14.927v14.55c8.265,2.28,12.452,7.761,12.9,16.229l13.5,8.439Zm-42.242,15.239a12.743,12.743,0,1,0,12.539-12.719A12.762,12.762,0,0,0,4265.234,5579.018Zm17.57-32.886,26.6,15.052,8.928-4.965-26.968-14.722Zm53.4.317-26.784-14.547-6.937,3.634,26.789,14.718Zm-41.322-6.778,28.583,15.516v8.283l3.927-2.125v-8.133l-28.576-15.687Z" transform="translate(-4231.951 -5492.001)" fill="#2672ab" stroke="#2672ab" stroke-linecap="round" stroke-width="1.5"/>
      <path id="Path_930" data-name="Path 930" d="M4091.684,5549.618a82.07,82.07,0,0,1-14.155.171v-14.9a69.31,69.31,0,0,1,14.155-.088Zm-3.239-11.788h-7.6v8.428h7.6Z" transform="translate(-4067.537 -5497.632)" fill="#2672ab" stroke="#2672ab" stroke-linecap="round" stroke-width="1.5"/>
      <path id="Path_931" data-name="Path 931" d="M4090.683,5736.262c.7,1.488.885,11.919.308,14.355-1.783,1.088-12.267,1.072-14.115-.1v-13.772C4078.455,5735.8,4087.442,5735.519,4090.683,5736.262Zm-2.859,3.136h-7.636v8.487h7.636Z" transform="translate(-4066.955 -5676.854)" fill="#2672ab" stroke="#2672ab" stroke-linecap="round" stroke-width="1.5"/>
      <path id="Path_932" data-name="Path 932" d="M4077.038,5953.184v-14.363c1.909-1.2,12.347-1.17,14.226.065v14.19A75.574,75.574,0,0,1,4077.038,5953.184Zm3.317-11.751v8.576h7.6v-8.722c-2.1,0-4.074-.009-6.047.006C4081.424,5941.3,4080.945,5941.377,4080.355,5941.433Z" transform="translate(-4067.1 -5856.741)" fill="#2672ab" stroke="#2672ab" stroke-linecap="round" stroke-width="1.5"/>
      <path id="Path_933" data-name="Path 933" d="M4262.1,5589.707c-.208.847-.406,1.647-.608,2.468h-25.423a1.7,1.7,0,0,1-.471-2.729C4237.681,5588.725,4259.88,5588.794,4262.1,5589.707Z" transform="translate(-4207.788 -5546.119)" fill="#2672ab" stroke="#2672ab" stroke-linecap="round" stroke-width="1.5"/>
      <path id="Path_934" data-name="Path 934" d="M4234.386,5795.956c.09-1.406.137-2.131.208-3.231,5.483-.1,10.759-.078,16.342,0,.118.992.216,1.811.362,3.035C4245.543,5796.17,4240.163,5795.94,4234.386,5795.956Z" transform="translate(-4207.152 -5727.427)" fill="#2672ab" stroke="#2672ab" stroke-linecap="round" stroke-width="1.5"/>
      <path id="Path_935" data-name="Path 935" d="M4303.573,5270.74a6.56,6.56,0,0,1-6.5-6.505,6.423,6.423,0,1,1,12.846.143A6.346,6.346,0,0,1,4303.573,5270.74Zm-.149-9.518a3.119,3.119,0,0,0,.169,6.236,2.986,2.986,0,0,0,2.985-3.2A3.033,3.033,0,0,0,4303.424,5261.223Z" transform="translate(-4262.945 -5251.421)" fill="#2672ab" stroke="#2672ab" stroke-linecap="round" stroke-width="1.5"/>
    </g>
  </g>
</svg>
