<svg xmlns="http://www.w3.org/2000/svg" width="71.276" height="92.837" viewBox="0 0 71.276 92.837">
  <g id="Group_204" data-name="Group 204" transform="translate(0.394 0.5)">
    <path id="Path_985" data-name="Path 985" d="M6041.845,5247.474c1.9-1.811,3.626-3.445,5.339-5.092a7.147,7.147,0,0,1,2.84-1.76,6.507,6.507,0,0,1,7.333,2.59,6.39,6.39,0,0,1-.412,7.833c-1.21,1.4-2.507,2.729-3.773,4.082-3.281,3.5-6.582,6.987-9.839,10.511a2.913,2.913,0,0,1-2.349,1c-5.693-.031-11.386,0-17.078-.027a1.848,1.848,0,0,0-1.478.6c-2.017,2.1-4.065,4.165-6.144,6.284.03.046.095.151.164.253a1.6,1.6,0,0,1-.126,2.319q-3.835,3.888-7.721,7.725c-.867.854-1.736.773-2.679-.168q-6.779-6.771-13.552-13.549l-3.159-3.16c-1.245-1.246-1.254-1.932-.031-3.157q3.508-3.513,7.021-7.02c1.164-1.163,1.625-1.211,3.22-.194a6.087,6.087,0,0,1,.6-.843c3.456-3.472,6.934-6.921,10.376-10.407a2.937,2.937,0,0,1,2.279-.941c8.9.027,17.806.016,26.71.016.264,0,.53-.012.794.007a1.582,1.582,0,0,1,1.58,1.485C6041.825,5246.318,6041.814,5246.781,6041.845,5247.474Zm-3.314.132c-.267-.02-.462-.045-.659-.045q-12.259-.005-24.517-.017a1.657,1.657,0,0,0-1.274.6q-4.974,4.994-9.959,9.972c-.2.205-.392.428-.585.64l12.609,12.443c2.144-2.213,4.371-4.477,6.549-6.786a3.065,3.065,0,0,1,2.457-1c5.624.036,11.249.005,16.873.032a2.009,2.009,0,0,0,1.634-.685q6.53-6.93,13.1-13.821a2.632,2.632,0,0,0,.388-.572,3.321,3.321,0,0,0-5.179-4.006q-4.613,4.293-9.148,8.669a2.781,2.781,0,0,1-2.092.9c-4.93-.027-9.859-.014-14.789-.014a6.083,6.083,0,0,1-.694-.015,1.577,1.577,0,0,1-.147-3.127,5.372,5.372,0,0,1,.988-.044q6.65,0,13.3,0h1.144Zm-46.086,17.567,15.168,15.246,5.318-5.45L5997.9,5259.8Z" transform="translate(-5988.27 -5192.571)" fill="#2672ab" stroke="#2672ab" stroke-width="1"/>
    <path id="Path_986" data-name="Path 986" d="M6110.389,5009.192c-.09-6.323,4.553-8.893,8-8.862a7.754,7.754,0,0,1,5.891,2.631,8.271,8.271,0,0,1,2.055,6.216c.37.02.688.05,1.005.052,1.555,0,3.11-.007,4.666.005,1.227.01,1.777.486,1.895,1.676.4,4.081.789,8.162,1.184,12.244q.655,6.764,1.313,13.526.326,3.357.64,6.716a5.814,5.814,0,0,1,.03.793,1.546,1.546,0,0,1-1.466,1.578,7.031,7.031,0,0,1-.793.015h-33.45c-.2,0-.4,0-.6,0a1.643,1.643,0,0,1-1.805-1.953c.2-2.24.429-4.477.644-6.715q.554-5.776,1.1-11.553t1.1-11.554c.094-.988.192-1.975.283-2.963.119-1.3.655-1.8,1.986-1.81,1.821-.009,3.64,0,5.46,0C6109.8,5009.229,6110.061,5009.208,6110.389,5009.192Zm-8.081,33.329h31.431c-.961-10.072-1.913-20.06-2.863-30.022h-25.707C6104.212,5022.54,6103.263,5032.5,6102.308,5042.521Zm11.381-33.366h9.4a4.775,4.775,0,1,0-9.4,0Z" transform="translate(-6076.927 -5000.33)" fill="#2672ab" stroke="#2672ab" stroke-width="1"/>
    <path id="Path_987" data-name="Path 987" d="M6164.639,5078.583a7.988,7.988,0,0,1-7.9-7.179,5.145,5.145,0,0,1-.023-.595,1.592,1.592,0,1,1,3.176-.168c.028.263.023.531.071.79a4.761,4.761,0,0,0,9.442-.428c.02-.2,0-.4.039-.593a1.593,1.593,0,0,1,1.589-1.358,1.529,1.529,0,0,1,1.545,1.5,8.137,8.137,0,0,1-.229,2.059A7.946,7.946,0,0,1,6164.639,5078.583Z" transform="translate(-6123.196 -5055.375)" fill="#2672ab" stroke="#2672ab" stroke-width="1"/>
  </g>
</svg>
