<svg xmlns="http://www.w3.org/2000/svg" width="65.54" height="73.782" viewBox="0 0 65.54 73.782">
  <g id="Group_205" data-name="Group 205" transform="translate(0.513 0.503)">
    <path id="Path_988" data-name="Path 988" d="M5679.662,5143.663c-.221.6-.386,1.09-.58,1.569a7.8,7.8,0,0,1-9.824,4.809,14.573,14.573,0,0,1-8.414-6.763,17.1,17.1,0,0,1-2.774-11.409,1.377,1.377,0,0,0-.367-.976c-4.7-4.958-3.713-12.062,2.188-15.5,2.521-1.469,5.05-2.922,7.575-4.384.3-.171.588-.354.893-.538-4.425-6.266-4.613-12.581-.461-19.018-2.824-2.542-3.78-5.6-2.307-9.19a7.319,7.319,0,0,1,7.213-4.521c3.667.162,5.913,2.241,7.2,5.743a26.814,26.814,0,0,1,13.882,0c1.466-3.925,4.155-6.113,8.419-5.689a7.06,7.06,0,0,1,6.239,4.988c1.2,3.4.132,6.267-2.532,8.665,4.136,6.411,4,12.756-.468,19.038,2.905,1.684,5.786,3.357,8.669,5.028a9.681,9.681,0,0,1,4.817,6.618,9.092,9.092,0,0,1-2.563,8.513,1.841,1.841,0,0,0-.551,1.549c.343,7.153-2.433,12.771-8.442,16.7a8.865,8.865,0,0,1-6.474,1.426c-3.227-.555-5.194-2.6-6.3-5.583-.108-.293-.191-.595-.292-.891-.01-.028-.05-.045-.166-.145A25.771,25.771,0,0,1,5679.662,5143.663Zm8.184-28.173c1-.125,2.955-.232,4.849-.631,3.969-.836,7.649-2.287,10.338-5.56a12.831,12.831,0,0,0,3.079-10.944,14.111,14.111,0,0,0-5.647-8.717,21.98,21.98,0,0,0-16.115-4.248,20.138,20.138,0,0,0-12.346,5.448c-7.812,7.531-4.37,17.795,2.961,21.8C5678.676,5114.663,5682.715,5115.4,5687.846,5115.49Zm-7.913,25.428c3.405,1.39,8.808,1.5,12.87.356.861-.242,1.33-.563,1.221-1.526a4.786,4.786,0,0,1,.108-1.45c1.364-6.962,4.864-12.155,12.031-14.447a15.207,15.207,0,0,0-5.062-9.144c-9.5,5.492-18.9,5.457-28.4-.023a15.187,15.187,0,0,0-5.064,9.2C5675.7,5127.038,5679.187,5131.887,5679.933,5140.918Zm33.433-7.307a26.78,26.78,0,0,0-.831-3.565,5.024,5.024,0,0,0-5.939-3.4,8.305,8.305,0,0,0-3.147,1.284c-4.92,3.54-7.315,8.351-6.662,14.444.4,3.74,3.087,5.853,6.489,5.256a8.255,8.255,0,0,0,2.972-1.165C5710.756,5143.56,5712.858,5139.255,5713.365,5133.612Zm-36.135,7.511a16.343,16.343,0,0,0-3.6-10.22,11.919,11.919,0,0,0-4.886-3.8c-3.764-1.505-7.072.242-7.9,4.218-.893,4.3.4,8.11,2.886,11.575a11.356,11.356,0,0,0,6.128,4.616,5.188,5.188,0,0,0,6.7-3.354A19.222,19.222,0,0,0,5677.23,5141.123Zm-6.627-28.21-.062-.225a2.4,2.4,0,0,0-.838.125c-3.069,1.756-6.156,3.485-9.172,5.331a6.523,6.523,0,0,0-3.147,5.673,6.41,6.41,0,0,0,1.676,4.6,7.561,7.561,0,0,1,4.93-4.184,1.4,1.4,0,0,0,1.2-1.37,16.614,16.614,0,0,1,3.966-8.342C5669.625,5113.975,5670.12,5113.449,5670.6,5112.913Zm44.186,15.427a6.69,6.69,0,0,0-1.231-10.045c-3.048-1.993-6.275-3.713-9.438-5.529-.2-.116-.528-.015-.9-.015a2.8,2.8,0,0,0,.218.385,18.138,18.138,0,0,1,5.43,10.22.915.915,0,0,0,.534.616A8.066,8.066,0,0,1,5714.789,5128.34Zm-45.064-38.973a23.853,23.853,0,0,1,7.6-5.021,4.88,4.88,0,0,0-4.575-3.967,4.934,4.934,0,0,0-4.911,3.319A4.851,4.851,0,0,0,5669.725,5089.367Zm26.839-5.118c1.394.767,2.773,1.427,4.044,2.253s2.433,1.816,3.654,2.744a4.691,4.691,0,0,0,1.848-5.344,4.976,4.976,0,0,0-4.86-3.532A4.892,4.892,0,0,0,5696.563,5084.25Z" transform="translate(-5654.73 -5077.731)" fill="#2672ab" stroke="#2672ab" stroke-width="1"/>
    <path id="Path_989" data-name="Path 989" d="M5776,5166.233c.373.371.749.723,1.1,1.1a6.387,6.387,0,0,1-.11,9.25,11.044,11.044,0,0,1-6.651,3.167,12.741,12.741,0,0,1-9.255-2c-4.292-2.974-4.57-7.679-.693-11.169a1.757,1.757,0,0,1,.4-.2,5.028,5.028,0,0,1-1.233-.915,1.928,1.928,0,0,1-.256-1.257,1.493,1.493,0,0,1,1.607-1.193c.934.085,1.366.723,1.463,2.212a14.186,14.186,0,0,1,11.917-.016c.185-1.542.629-2.16,1.562-2.2a1.609,1.609,0,0,1,1.586,1.257C5777.627,5165.106,5777.176,5165.736,5776,5166.233Zm-10.543.734a7.883,7.883,0,0,0-3.838,2.089,3.758,3.758,0,0,0-.049,5.569,7.875,7.875,0,0,0,1.9,1.426,10.559,10.559,0,0,0,7.179.938,7.9,7.9,0,0,0,4.757-2.569,3.658,3.658,0,0,0,.015-5.024,7.473,7.473,0,0,0-4.04-2.4c.19,1.36-.045,1.976-.943,2.539a4.206,4.206,0,0,1-4.256-.073A1.889,1.889,0,0,1,5765.458,5166.967Z" transform="translate(-5736.141 -5145.174)" fill="#2672ab" stroke="#2672ab" stroke-width="1"/>
  </g>
</svg>

