<svg xmlns="http://www.w3.org/2000/svg" width="61.338" height="49.818" viewBox="0 0 61.338 49.818">
  <path id="Icon_awesome-twitter" data-name="Icon awesome-twitter" d="M55.033,15.8c.039.545.039,1.09.039,1.635C55.072,34.05,42.423,53.2,19.3,53.2A35.525,35.525,0,0,1,0,47.556a26.006,26.006,0,0,0,3.036.156A25.177,25.177,0,0,0,18.643,42.34,12.593,12.593,0,0,1,6.889,33.622a15.853,15.853,0,0,0,2.374.195,13.3,13.3,0,0,0,3.308-.428A12.573,12.573,0,0,1,2.491,21.051V20.9a12.661,12.661,0,0,0,5.682,1.6A12.59,12.59,0,0,1,4.281,5.677,35.733,35.733,0,0,0,30.2,18.832a14.191,14.191,0,0,1-.311-2.88,12.583,12.583,0,0,1,21.757-8.6,24.75,24.75,0,0,0,7.979-3.036A12.537,12.537,0,0,1,54.1,11.243,25.2,25.2,0,0,0,61.338,9.3a27.023,27.023,0,0,1-6.3,6.5Z" transform="translate(0 -3.381)" fill="#3b6a98"/>
</svg>
