<svg xmlns="http://www.w3.org/2000/svg" xmlns:xlink="http://www.w3.org/1999/xlink" width="116" height="111.786" viewBox="0 0 116 111.786">
  <defs>
    <filter id="Rectangle_23" x="34" y="48.786" width="82" height="63" filterUnits="userSpaceOnUse">
      <feOffset dy="3" input="SourceAlpha"/>
      <feGaussianBlur stdDeviation="3" result="blur"/>
      <feFlood flood-color="#fbca01" flood-opacity="0.42"/>
      <feComposite operator="in" in2="blur"/>
      <feComposite in="SourceGraphic"/>
    </filter>
  </defs>
  <g id="Group_184" data-name="Group 184" transform="translate(-366 -1093.214)">
    <g transform="matrix(1, 0, 0, 1, 366, 1093.21)" filter="url(#Rectangle_23)">
      <rect id="Rectangle_23-2" data-name="Rectangle 23" width="64" height="45" rx="8" transform="translate(43 54.79)" fill="#fbca01"/>
    </g>
    <g id="Group_182" data-name="Group 182" transform="translate(366 1093.214)">
      <path id="Path_936" data-name="Path 936" d="M1794.66,5560.315a29.941,29.941,0,1,1-.184-59.882,30.091,30.091,0,0,1,30.183,29.992C1824.614,5547.162,1810.623,5560.611,1794.66,5560.315Zm9.862-31.916c-.305-2.847-.575-5.364-.851-7.939h-18.009l-.917,7.939Zm-.018,4.039c-6.873-.046-13.166-.051-19.756-.013l.911,7.846H1803.7Zm-1.787-16.572c-.733-1.95-1.448-3.895-2.194-5.826-1.162-3.008-3.266-4.483-6.559-3.913-1.053.183-2.487.1-3.066.744a18.647,18.647,0,0,0-4.244,9.133C1791,5517.006,1798.776,5517.106,1802.716,5515.866Zm-11.665,38.536h7.124a23.442,23.442,0,0,0,4.49-9.986,129.221,129.221,0,0,0-16.166,0A24.742,24.742,0,0,0,1791.051,5554.4Zm24.324-36.395-7.821,1.771c.319,3.132.6,5.892.878,8.622h10.393A21.064,21.064,0,0,0,1815.375,5518.008Zm-41.665,0a22.227,22.227,0,0,0-3.2,10.348h10.286c.293-2.956.568-5.727.854-8.62Zm34.666,14.577c-.239,2.932-.462,5.671-.693,8.5l7.666,1.713a20.184,20.184,0,0,0,3.416-10.212Zm-37.865-.007a20.722,20.722,0,0,0,3.328,10.238l7.808-1.774c-.289-2.936-.553-5.627-.832-8.464Zm14.518-23.934-.36-.4a22.785,22.785,0,0,0-8.43,6.344l6.214,1.213Zm.135,43.97-2.753-7.622-6.192,1.2C1778.867,5549.113,1781.351,5551.333,1785.164,5552.618Zm18.853-44.641,2.808,7.87,6.08-1.278A22.85,22.85,0,0,0,1804.017,5507.978Zm-.025,44.734a19.611,19.611,0,0,0,8.894-6.571l-6.015-1.095Z" transform="translate(-1745.495 -5482.861)" fill="#2672ab"/>
      <path id="Path_937" data-name="Path 937" d="M2011.046,5809.629a10.657,10.657,0,0,1-.151,2.387c-.288.909-.619,2.243-1.27,2.485a3.728,3.728,0,0,1-2.964-.57,77.443,77.443,0,0,1-6-4.907c-.964-.839-1.8-1.832-2.839-2.913a19.771,19.771,0,0,1,1.947-2.405c2.118-1.864,4.309-3.645,6.47-5.461.987-.829,2.01-1.608,3.385-.963,1.291.605,1.315,1.823,1.332,3.025a12.336,12.336,0,0,0,.183,1.269,35.247,35.247,0,0,0,16.891-11.822,38.229,38.229,0,0,0,7.97-18.9h7.581a14.335,14.335,0,0,1-.022,2.714c-3.476,17.257-13.554,28.9-29.971,35.126C2012.787,5809,2011.986,5809.283,2011.046,5809.629Z" transform="translate(-1948.602 -5718.39)" fill="#2672ab"/>
      <path id="Path_938" data-name="Path 938" d="M1646.873,5407.089H1639.3a23.3,23.3,0,0,1,.229-3.379c3.723-16.805,13.652-28.131,29.951-33.8.507-.177.99-.42,1.467-.625l.713-4.534c1.688-.775,2.821-.576,3.893.324,2.279,1.911,4.612,3.758,6.86,5.7a10.993,10.993,0,0,1,1.448,2.122,20.068,20.068,0,0,1-1.941,2.314c-1.992,1.763-4.056,3.444-6.1,5.146-.911.758-1.845,1.559-3.157,1.019s-1.441-1.722-1.462-2.941a8.938,8.938,0,0,0-.232-1.22,33.291,33.291,0,0,0-16.452,11.485A35.994,35.994,0,0,0,1646.873,5407.089Z" transform="translate(-1636.348 -5364.264)" fill="#2672ab"/>
      <path id="Path_939" data-name="Path 939" d="M1616.422,5755.652c.61-1.686.772-2.885,1.4-3.735,1.724-2.322,3.6-4.533,5.5-6.717,1.349-1.552,2.618-1.609,3.975-.1,2.145,2.385,4.227,4.834,6.209,7.355,1.408,1.791.6,3.524-1.659,3.9-.6.1-1.2.169-2.16.3,5.4,14.022,15.614,21.669,29.995,24.235v7.5a41.832,41.832,0,0,1-23.7-10.089,43.907,43.907,0,0,1-13.9-21.536Z" transform="translate(-1616.422 -5695)" fill="#2672ab"/>
      <path id="Path_940" data-name="Path 940" d="M2073.323,5411.088c1.093,0,1.951-.059,2.8.012,1.974.166,3.02,1.908,1.858,3.463-2.059,2.755-4.313,5.376-6.633,7.918-1.11,1.216-2.434.982-3.633-.412-1.94-2.256-3.89-4.512-5.677-6.888a4.01,4.01,0,0,1-.717-2.733c.175-1.146,1.335-1.368,2.426-1.388a12.928,12.928,0,0,0,1.677-.286A34.1,34.1,0,0,0,2054,5394.412a37.042,37.042,0,0,0-18.452-7.677v-7.647a42.318,42.318,0,0,1,23.768,10.1C2066.22,5394.935,2070.517,5402.352,2073.323,5411.088Z" transform="translate(-1981.463 -5377.174)" fill="#2672ab"/>
    </g>
  </g>
</svg>
